# xmcd
#
# Track frame offsets: 
#        150
#        17872
#        35602
#        61332
#        87105
#        103355
#        119610
#        144242
#        180225
#
# Disc length: 4770 seconds
#
# Revision: 1
# Processed by: cddbd v1.5.2PL0 Copyright (c) Steve Scherf et al.
# Submitted via: ExactAudioCopyFreeDBPlugin 1.0
#
DISCID=7512a009
DTITLE=DJ Cornfield - Ein Bett im Kornfeld
DYEAR=1900
DGENRE=
TTITLE0=Dschinghis Khan (single edit)
TTITLE1=Dschinghis Khan (snon vocal single edit)
TTITLE2=Dschinghis Khan (Volle Kante Vocal Mix)
TTITLE3=Dschinghis Khan (Volle Kante Mix)
TTITLE4=Ein Bett im Kornfeld (single edit vocal video)
TTITLE5=Ein Bett im Kornfeld (non vocal single edit)
TTITLE6=Ein Bett im Kornfeld (Rubber Boots Vocal Mix)
TTITLE7=Ein Bett im Kornfeld (Rubber Boots Mix)
TTITLE8=Video
EXTD=
EXTT0=
EXTT1=
EXTT2=
EXTT3=
EXTT4=
EXTT5=
EXTT6=
EXTT7=
EXTT8=
PLAYORDER=
